<?xml version="1.0" standalone="no"?><!DOCTYPE svg PUBLIC "-//W3C//DTD SVG 1.1//EN" "http://www.w3.org/Graphics/SVG/1.1/DTD/svg11.dtd"><svg t="1679370231109" class="icon" viewBox="0 0 1024 1024" version="1.1" xmlns="http://www.w3.org/2000/svg" p-id="21533" xmlns:xlink="http://www.w3.org/1999/xlink" width="24" height="24"><path d="M854.113 438.25a347.032 347.032 0 0 0-18.73-60C782.737 251.438 657.636 162 512 162c-87.267 0-167.111 32.178-228.474 85.195-15.76 13.618-30.315 28.579-43.439 44.766C191.305 352.122 162 428.689 162 512c0 153.936 99.94 284.883 238.309 331.616 19.573 6.611 39.89 11.582 60.829 14.644C477.751 860.691 494.723 862 512 862c192.988 0 350-157.012 350-350 0-25.303-2.762-49.961-7.887-73.75zM512 222c111.682 0 208.755 63.501 257.188 156.25H508.116v0.254c-47.281 1.812-88.198 28.848-109.436 68.145l-84.525-146.401C366.011 251.766 435.578 222 512 222z m71.116 286.25c0 38.594-31.401 70-70 70s-70-31.406-70-70 31.401-70 70-70 70 31.406 70 70zM222 512c0-60.64 18.741-116.973 50.691-163.569L391.95 554.993c18.827 48.623 65.973 83.257 121.166 83.257 2.004 0 3.955-0.21 5.938-0.303L431.03 790.408C310.417 755.271 222 643.797 222 512z m290 290c-6.058 0-12.057-0.249-18.024-0.615l130.308-225.703c0.282-0.488 0.446-1.006 0.68-1.504 11.455-19.36 18.152-41.851 18.152-65.928 0-25.781-7.635-49.766-20.63-70h169.982A289.413 289.413 0 0 1 802 512c0 159.902-130.093 290-290 290z" fill="#333333" p-id="21534"></path></svg>