<svg t="1654076457771" class="icon" viewBox="0 0 1024 1024" version="1.1" xmlns="http://www.w3.org/2000/svg" p-id="1208" width="200" height="200"><path d="M992 731.2a263.36 263.36 0 0 0-18.56-75.52 182.08 182.08 0 0 0-7.68-16 29.76 29.76 0 0 1-1.6-3.2 230.72 230.72 0 0 0-24-35.52 50.88 50.88 0 0 0-6.4-7.68q-67.2-67.84-134.72-135.04L598.4 258.24c23.04-32 78.08-88 117.44-100.48a120.32 120.32 0 0 1 154.24 126.08 128 128 0 0 1-28.8 66.88l-32 30.08 82.56 86.08H896c137.92-102.72 116.16-320-22.08-402.88a265.92 265.92 0 0 0-214.72-14.4 199.36 199.36 0 0 0-60.8 36.48L259.84 425.28 248.64 416l-12.16-10.56A282.88 282.88 0 0 1 160 307.52a120.32 120.32 0 0 1 125.44-154.56 135.36 135.36 0 0 1 66.56 28.8l32 32L468.16 128a244.48 244.48 0 0 0-214.72-96 224 224 0 0 0-101.76 32C77.12 109.12 0 226.56 47.04 352a295.36 295.36 0 0 0 41.28 72.96c16.32 17.28 32 34.24 49.28 51.2l14.4 14.4 11.2 11.2 263.36 264c-7.36 8-14.72 16.64-22.08 24.96l-10.88 12.16a186.56 186.56 0 0 1-96 64 119.68 119.68 0 0 1-141.44-128A123.2 123.2 0 0 1 183.68 672a375.68 375.68 0 0 1 32-32c-28.48-27.84-55.68-56-84.48-83.84a242.88 242.88 0 0 0 50.88 416 219.2 219.2 0 0 0 111.04 19.2c87.68-10.88 136.32-55.36 184-104l11.2-11.52c9.6-9.92 19.2-19.84 29.12-29.44l52.16-50.88 196.48-196.8c35.2 32 87.68 67.84 101.76 130.56a121.92 121.92 0 0 1-128 141.76 134.08 134.08 0 0 1-66.88-28.8c-11.2-8.64-21.12-21.76-32-32l-40.32 40.32L555.52 896a292.16 292.16 0 0 0 120.64 84.16 224 224 0 0 0 65.6 10.88 252.8 252.8 0 0 0 239.04-166.72 154.88 154.88 0 0 0 4.48-16.32 23.68 23.68 0 0 0 0-4.48 241.6 241.6 0 0 0 6.72-46.08 244.16 244.16 0 0 0 0-26.24zM679.36 512L512 678.72 345.6 512l166.4-167.68 141.76 140.8 26.56 26.24z" p-id="1209"></path></svg>
